<mxfile host="app.diagrams.net" modified="2023-09-02T05:51:17.442Z" agent="Mozilla/5.0 (Windows NT 10.0; Win64; x64) AppleWebKit/537.36 (KHTML, like Gecko) Chrome/116.0.0.0 Safari/537.36 Edg/116.0.1938.62" etag="R36viRj-UnkIDadgTAsR" version="21.7.1" type="github">
  <diagram name="Page-1" id="2696yGlT5MmgsfeO-Phb">
    <mxGraphModel dx="1394" dy="795" grid="1" gridSize="10" guides="1" tooltips="1" connect="1" arrows="1" fold="1" page="1" pageScale="1" pageWidth="850" pageHeight="1100" math="0" shadow="0">
      <root>
        <mxCell id="0" />
        <mxCell id="1" parent="0" />
        <mxCell id="IwtLEF7Zz2IX40g9QoHQ-1" value="" style="verticalLabelPosition=bottom;verticalAlign=top;html=1;shadow=0;dashed=0;strokeWidth=1;shape=mxgraph.android.phone2;strokeColor=#c0c0c0;" vertex="1" parent="1">
          <mxGeometry x="315.76000000000005" y="85.44999999999982" width="20" height="40" as="geometry" />
        </mxCell>
        <mxCell id="IwtLEF7Zz2IX40g9QoHQ-2" value="" style="image;points=[];aspect=fixed;html=1;align=center;shadow=0;dashed=0;image=img/lib/allied_telesis/computer_and_terminals/Personal_Computer.svg;" vertex="1" parent="1">
          <mxGeometry x="344.98" y="80" width="36.43" height="49.37" as="geometry" />
        </mxCell>
        <mxCell id="IwtLEF7Zz2IX40g9QoHQ-3" value="" style="sketch=0;outlineConnect=0;fontColor=#232F3E;gradientColor=none;fillColor=#232F3D;strokeColor=none;dashed=0;verticalLabelPosition=bottom;verticalAlign=top;align=center;html=1;fontSize=12;fontStyle=0;aspect=fixed;pointerEvents=1;shape=mxgraph.aws4.traditional_server;" vertex="1" parent="1">
          <mxGeometry x="120" y="450" width="45" height="78" as="geometry" />
        </mxCell>
        <mxCell id="IwtLEF7Zz2IX40g9QoHQ-4" value="" style="outlineConnect=0;dashed=0;verticalLabelPosition=bottom;verticalAlign=top;align=center;html=1;shape=mxgraph.aws3.internet;fillColor=#D2D3D3;gradientColor=none;" vertex="1" parent="1">
          <mxGeometry x="295.7299999999999" y="180" width="36.36" height="29.1" as="geometry" />
        </mxCell>
        <mxCell id="IwtLEF7Zz2IX40g9QoHQ-5" value="Internet" style="text;strokeColor=none;align=center;fillColor=none;html=1;verticalAlign=middle;whiteSpace=wrap;rounded=0;" vertex="1" parent="1">
          <mxGeometry x="341.40999999999997" y="184.55000000000018" width="40" height="20" as="geometry" />
        </mxCell>
        <mxCell id="IwtLEF7Zz2IX40g9QoHQ-6" value="" style="strokeWidth=2;html=1;shape=mxgraph.flowchart.database;whiteSpace=wrap;" vertex="1" parent="1">
          <mxGeometry x="138.47999999999996" y="600" width="46" height="60" as="geometry" />
        </mxCell>
        <mxCell id="IwtLEF7Zz2IX40g9QoHQ-7" value="Database" style="text;strokeColor=none;align=center;fillColor=none;html=1;verticalAlign=middle;whiteSpace=wrap;rounded=0;" vertex="1" parent="1">
          <mxGeometry x="341.40999999999997" y="610" width="60" height="30" as="geometry" />
        </mxCell>
        <mxCell id="IwtLEF7Zz2IX40g9QoHQ-9" value="" style="sketch=0;outlineConnect=0;fontColor=#232F3E;gradientColor=none;fillColor=#232F3D;strokeColor=none;dashed=0;verticalLabelPosition=bottom;verticalAlign=top;align=center;html=1;fontSize=12;fontStyle=0;aspect=fixed;pointerEvents=1;shape=mxgraph.aws4.traditional_server;" vertex="1" parent="1">
          <mxGeometry x="184.48000000000002" y="450" width="45" height="78" as="geometry" />
        </mxCell>
        <mxCell id="IwtLEF7Zz2IX40g9QoHQ-13" value="" style="sketch=0;outlineConnect=0;fontColor=#232F3E;gradientColor=none;fillColor=#4D27AA;strokeColor=none;dashed=0;verticalLabelPosition=bottom;verticalAlign=top;align=center;html=1;fontSize=12;fontStyle=0;aspect=fixed;pointerEvents=1;shape=mxgraph.aws4.network_load_balancer;" vertex="1" parent="1">
          <mxGeometry x="144.48" y="360" width="40" height="40" as="geometry" />
        </mxCell>
        <mxCell id="IwtLEF7Zz2IX40g9QoHQ-14" value="" style="endArrow=classic;html=1;rounded=0;" edge="1" parent="1" source="IwtLEF7Zz2IX40g9QoHQ-13" target="IwtLEF7Zz2IX40g9QoHQ-3">
          <mxGeometry width="50" height="50" relative="1" as="geometry">
            <mxPoint x="264.92" y="420" as="sourcePoint" />
            <mxPoint x="144.92000000000002" y="440" as="targetPoint" />
          </mxGeometry>
        </mxCell>
        <mxCell id="IwtLEF7Zz2IX40g9QoHQ-15" value="" style="endArrow=classic;html=1;rounded=0;" edge="1" parent="1" target="IwtLEF7Zz2IX40g9QoHQ-9" source="IwtLEF7Zz2IX40g9QoHQ-13">
          <mxGeometry width="50" height="50" relative="1" as="geometry">
            <mxPoint x="257.92" y="408" as="sourcePoint" />
            <mxPoint x="200" y="430" as="targetPoint" />
          </mxGeometry>
        </mxCell>
        <mxCell id="IwtLEF7Zz2IX40g9QoHQ-21" value="" style="endArrow=none;html=1;rounded=0;entryX=0.5;entryY=0;entryDx=0;entryDy=0;entryPerimeter=0;" edge="1" parent="1" source="IwtLEF7Zz2IX40g9QoHQ-9" target="IwtLEF7Zz2IX40g9QoHQ-6">
          <mxGeometry width="50" height="50" relative="1" as="geometry">
            <mxPoint x="375" y="517" as="sourcePoint" />
            <mxPoint x="281" y="593" as="targetPoint" />
          </mxGeometry>
        </mxCell>
        <mxCell id="IwtLEF7Zz2IX40g9QoHQ-22" value="" style="endArrow=none;html=1;rounded=0;entryX=0.5;entryY=0;entryDx=0;entryDy=0;entryPerimeter=0;" edge="1" parent="1" target="IwtLEF7Zz2IX40g9QoHQ-6">
          <mxGeometry width="50" height="50" relative="1" as="geometry">
            <mxPoint x="136.5" y="528" as="sourcePoint" />
            <mxPoint x="148.5" y="579" as="targetPoint" />
          </mxGeometry>
        </mxCell>
        <mxCell id="IwtLEF7Zz2IX40g9QoHQ-23" value="" style="sketch=0;outlineConnect=0;fontColor=#232F3E;gradientColor=none;fillColor=#232F3D;strokeColor=none;dashed=0;verticalLabelPosition=bottom;verticalAlign=top;align=center;html=1;fontSize=12;fontStyle=0;aspect=fixed;pointerEvents=1;shape=mxgraph.aws4.traditional_server;" vertex="1" parent="1">
          <mxGeometry x="270.76" y="450" width="45" height="78" as="geometry" />
        </mxCell>
        <mxCell id="IwtLEF7Zz2IX40g9QoHQ-24" value="" style="strokeWidth=2;html=1;shape=mxgraph.flowchart.database;whiteSpace=wrap;" vertex="1" parent="1">
          <mxGeometry x="289.23999999999995" y="600" width="46" height="60" as="geometry" />
        </mxCell>
        <mxCell id="IwtLEF7Zz2IX40g9QoHQ-25" value="" style="sketch=0;outlineConnect=0;fontColor=#232F3E;gradientColor=none;fillColor=#232F3D;strokeColor=none;dashed=0;verticalLabelPosition=bottom;verticalAlign=top;align=center;html=1;fontSize=12;fontStyle=0;aspect=fixed;pointerEvents=1;shape=mxgraph.aws4.traditional_server;" vertex="1" parent="1">
          <mxGeometry x="335.24" y="450" width="45" height="78" as="geometry" />
        </mxCell>
        <mxCell id="IwtLEF7Zz2IX40g9QoHQ-26" value="" style="endArrow=none;html=1;rounded=0;entryX=0.5;entryY=0;entryDx=0;entryDy=0;entryPerimeter=0;" edge="1" parent="1" source="IwtLEF7Zz2IX40g9QoHQ-25" target="IwtLEF7Zz2IX40g9QoHQ-24">
          <mxGeometry width="50" height="50" relative="1" as="geometry">
            <mxPoint x="525.76" y="517" as="sourcePoint" />
            <mxPoint x="431.76" y="593" as="targetPoint" />
          </mxGeometry>
        </mxCell>
        <mxCell id="IwtLEF7Zz2IX40g9QoHQ-27" value="" style="endArrow=none;html=1;rounded=0;entryX=0.5;entryY=0;entryDx=0;entryDy=0;entryPerimeter=0;" edge="1" parent="1" target="IwtLEF7Zz2IX40g9QoHQ-24">
          <mxGeometry width="50" height="50" relative="1" as="geometry">
            <mxPoint x="287.26" y="528" as="sourcePoint" />
            <mxPoint x="299.26" y="579" as="targetPoint" />
          </mxGeometry>
        </mxCell>
        <mxCell id="IwtLEF7Zz2IX40g9QoHQ-28" value="" style="sketch=0;outlineConnect=0;fontColor=#232F3E;gradientColor=none;fillColor=#232F3D;strokeColor=none;dashed=0;verticalLabelPosition=bottom;verticalAlign=top;align=center;html=1;fontSize=12;fontStyle=0;aspect=fixed;pointerEvents=1;shape=mxgraph.aws4.traditional_server;" vertex="1" parent="1">
          <mxGeometry x="440" y="450" width="45" height="78" as="geometry" />
        </mxCell>
        <mxCell id="IwtLEF7Zz2IX40g9QoHQ-29" value="" style="strokeWidth=2;html=1;shape=mxgraph.flowchart.database;whiteSpace=wrap;" vertex="1" parent="1">
          <mxGeometry x="458.47999999999996" y="600" width="46" height="60" as="geometry" />
        </mxCell>
        <mxCell id="IwtLEF7Zz2IX40g9QoHQ-30" value="" style="sketch=0;outlineConnect=0;fontColor=#232F3E;gradientColor=none;fillColor=#232F3D;strokeColor=none;dashed=0;verticalLabelPosition=bottom;verticalAlign=top;align=center;html=1;fontSize=12;fontStyle=0;aspect=fixed;pointerEvents=1;shape=mxgraph.aws4.traditional_server;" vertex="1" parent="1">
          <mxGeometry x="504.48" y="450" width="45" height="78" as="geometry" />
        </mxCell>
        <mxCell id="IwtLEF7Zz2IX40g9QoHQ-31" value="" style="endArrow=none;html=1;rounded=0;entryX=0.5;entryY=0;entryDx=0;entryDy=0;entryPerimeter=0;" edge="1" parent="1" source="IwtLEF7Zz2IX40g9QoHQ-30" target="IwtLEF7Zz2IX40g9QoHQ-29">
          <mxGeometry width="50" height="50" relative="1" as="geometry">
            <mxPoint x="695" y="517" as="sourcePoint" />
            <mxPoint x="601" y="593" as="targetPoint" />
          </mxGeometry>
        </mxCell>
        <mxCell id="IwtLEF7Zz2IX40g9QoHQ-32" value="" style="endArrow=none;html=1;rounded=0;entryX=0.5;entryY=0;entryDx=0;entryDy=0;entryPerimeter=0;" edge="1" parent="1" target="IwtLEF7Zz2IX40g9QoHQ-29">
          <mxGeometry width="50" height="50" relative="1" as="geometry">
            <mxPoint x="456.5" y="528" as="sourcePoint" />
            <mxPoint x="468.5" y="579" as="targetPoint" />
          </mxGeometry>
        </mxCell>
        <mxCell id="IwtLEF7Zz2IX40g9QoHQ-33" value="" style="sketch=0;outlineConnect=0;fontColor=#232F3E;gradientColor=none;fillColor=#4D27AA;strokeColor=none;dashed=0;verticalLabelPosition=bottom;verticalAlign=top;align=center;html=1;fontSize=12;fontStyle=0;aspect=fixed;pointerEvents=1;shape=mxgraph.aws4.network_load_balancer;" vertex="1" parent="1">
          <mxGeometry x="300.54999999999995" y="359.84000000000003" width="40" height="40" as="geometry" />
        </mxCell>
        <mxCell id="IwtLEF7Zz2IX40g9QoHQ-34" value="" style="endArrow=classic;html=1;rounded=0;" edge="1" source="IwtLEF7Zz2IX40g9QoHQ-33" parent="1">
          <mxGeometry width="50" height="50" relative="1" as="geometry">
            <mxPoint x="420.99" y="419.84" as="sourcePoint" />
            <mxPoint x="306.07" y="449.84" as="targetPoint" />
          </mxGeometry>
        </mxCell>
        <mxCell id="IwtLEF7Zz2IX40g9QoHQ-35" value="" style="endArrow=classic;html=1;rounded=0;" edge="1" source="IwtLEF7Zz2IX40g9QoHQ-33" parent="1">
          <mxGeometry width="50" height="50" relative="1" as="geometry">
            <mxPoint x="413.99" y="407.84000000000003" as="sourcePoint" />
            <mxPoint x="348.07" y="449.84" as="targetPoint" />
          </mxGeometry>
        </mxCell>
        <mxCell id="IwtLEF7Zz2IX40g9QoHQ-36" value="" style="sketch=0;outlineConnect=0;fontColor=#232F3E;gradientColor=none;fillColor=#4D27AA;strokeColor=none;dashed=0;verticalLabelPosition=bottom;verticalAlign=top;align=center;html=1;fontSize=12;fontStyle=0;aspect=fixed;pointerEvents=1;shape=mxgraph.aws4.network_load_balancer;" vertex="1" parent="1">
          <mxGeometry x="469.99999999999994" y="370" width="40" height="40" as="geometry" />
        </mxCell>
        <mxCell id="IwtLEF7Zz2IX40g9QoHQ-37" value="" style="endArrow=classic;html=1;rounded=0;" edge="1" source="IwtLEF7Zz2IX40g9QoHQ-36" parent="1">
          <mxGeometry width="50" height="50" relative="1" as="geometry">
            <mxPoint x="590.44" y="430" as="sourcePoint" />
            <mxPoint x="475.52" y="460" as="targetPoint" />
          </mxGeometry>
        </mxCell>
        <mxCell id="IwtLEF7Zz2IX40g9QoHQ-38" value="" style="endArrow=classic;html=1;rounded=0;" edge="1" source="IwtLEF7Zz2IX40g9QoHQ-36" parent="1">
          <mxGeometry width="50" height="50" relative="1" as="geometry">
            <mxPoint x="583.44" y="418" as="sourcePoint" />
            <mxPoint x="517.52" y="460" as="targetPoint" />
          </mxGeometry>
        </mxCell>
        <mxCell id="IwtLEF7Zz2IX40g9QoHQ-39" value="Geo Routing" style="sketch=0;outlineConnect=0;fontColor=#232F3E;gradientColor=none;fillColor=#4D27AA;strokeColor=none;dashed=0;verticalLabelPosition=bottom;verticalAlign=top;align=center;html=1;fontSize=12;fontStyle=0;aspect=fixed;pointerEvents=1;shape=mxgraph.aws4.network_load_balancer;" vertex="1" parent="1">
          <mxGeometry x="330" y="240" width="40" height="40" as="geometry" />
        </mxCell>
        <mxCell id="IwtLEF7Zz2IX40g9QoHQ-40" value="" style="endArrow=classic;html=1;rounded=0;" edge="1" parent="1" source="IwtLEF7Zz2IX40g9QoHQ-39" target="IwtLEF7Zz2IX40g9QoHQ-13">
          <mxGeometry width="50" height="50" relative="1" as="geometry">
            <mxPoint x="250.76" y="270" as="sourcePoint" />
            <mxPoint x="270.76" y="320" as="targetPoint" />
          </mxGeometry>
        </mxCell>
        <mxCell id="IwtLEF7Zz2IX40g9QoHQ-41" value="" style="endArrow=classic;html=1;rounded=0;" edge="1" parent="1" source="IwtLEF7Zz2IX40g9QoHQ-39" target="IwtLEF7Zz2IX40g9QoHQ-33">
          <mxGeometry width="50" height="50" relative="1" as="geometry">
            <mxPoint x="340" y="283" as="sourcePoint" />
            <mxPoint x="194" y="377" as="targetPoint" />
          </mxGeometry>
        </mxCell>
        <mxCell id="IwtLEF7Zz2IX40g9QoHQ-42" value="" style="endArrow=classic;html=1;rounded=0;" edge="1" parent="1" source="IwtLEF7Zz2IX40g9QoHQ-39" target="IwtLEF7Zz2IX40g9QoHQ-36">
          <mxGeometry width="50" height="50" relative="1" as="geometry">
            <mxPoint x="355" y="290" as="sourcePoint" />
            <mxPoint x="335" y="370" as="targetPoint" />
          </mxGeometry>
        </mxCell>
        <mxCell id="IwtLEF7Zz2IX40g9QoHQ-43" value="NA" style="text;strokeColor=none;align=center;fillColor=none;html=1;verticalAlign=middle;whiteSpace=wrap;rounded=0;" vertex="1" parent="1">
          <mxGeometry x="210" y="310" width="60" height="30" as="geometry" />
        </mxCell>
        <mxCell id="IwtLEF7Zz2IX40g9QoHQ-44" value="EU" style="text;strokeColor=none;align=center;fillColor=none;html=1;verticalAlign=middle;whiteSpace=wrap;rounded=0;" vertex="1" parent="1">
          <mxGeometry x="340" y="330" width="60" height="30" as="geometry" />
        </mxCell>
        <mxCell id="IwtLEF7Zz2IX40g9QoHQ-45" value="IN" style="text;strokeColor=none;align=center;fillColor=none;html=1;verticalAlign=middle;whiteSpace=wrap;rounded=0;" vertex="1" parent="1">
          <mxGeometry x="450" y="330" width="60" height="30" as="geometry" />
        </mxCell>
        <mxCell id="IwtLEF7Zz2IX40g9QoHQ-46" value="&lt;div style=&quot;text-align: left;&quot;&gt;&lt;span style=&quot;background-color: initial;&quot;&gt;Resiliency&lt;/span&gt;&lt;/div&gt;&lt;div style=&quot;text-align: left;&quot;&gt;&lt;span style=&quot;background-color: initial;&quot;&gt;- There could be outages, one way to prevent is Geo- ROuting&lt;/span&gt;&lt;/div&gt;&lt;div style=&quot;text-align: left;&quot;&gt;&lt;span style=&quot;background-color: initial;&quot;&gt;- Traffic from North America is routed to North America server&lt;/span&gt;&lt;/div&gt;&lt;div style=&quot;text-align: left;&quot;&gt;&lt;span style=&quot;background-color: initial;&quot;&gt;- So in case, all of IN went down, traffic can still be routed to EU and NA servers&lt;/span&gt;&lt;/div&gt;&lt;div style=&quot;text-align: left;&quot;&gt;&lt;span style=&quot;background-color: initial;&quot;&gt;- Geo-routing can sense which network&amp;nbsp;is down and re-route accordingly&lt;/span&gt;&lt;/div&gt;&lt;div style=&quot;text-align: left;&quot;&gt;&lt;span style=&quot;background-color: initial;&quot;&gt;- Resiliency is also planning well ahead as to how to distribute your servers&lt;/span&gt;&lt;/div&gt;&lt;div style=&quot;text-align: left;&quot;&gt;&lt;span style=&quot;background-color: initial;&quot;&gt;- Secondaries hsould be spread across multiple racks, availability zones, regions&lt;/span&gt;&lt;/div&gt;&lt;div style=&quot;text-align: left;&quot;&gt;&lt;span style=&quot;background-color: initial;&quot;&gt;- Should go for over provisioning to make sure system has enough capacity to survive a failure&lt;/span&gt;&lt;/div&gt;&lt;div style=&quot;text-align: left;&quot;&gt;&lt;span style=&quot;background-color: initial;&quot;&gt;- Need to balance between budget and availablity&lt;/span&gt;&lt;/div&gt;&lt;div style=&quot;text-align: left;&quot;&gt;&lt;span style=&quot;background-color: initial;&quot;&gt;-&amp;nbsp;&lt;/span&gt;&lt;/div&gt;" style="text;strokeColor=none;align=center;fillColor=none;html=1;verticalAlign=middle;whiteSpace=wrap;rounded=0;" vertex="1" parent="1">
          <mxGeometry x="690" y="190" width="230" height="230" as="geometry" />
        </mxCell>
      </root>
    </mxGraphModel>
  </diagram>
</mxfile>
